# xmcd CD database file
#
# Track frame offsets:
#	150
#	18475
#	37312
#	62212
#	79937
#	98275
#	117862
#	137912
#	157750
#	173912
#
# Disc length: 2548 seconds
#
# Revision: 5
# Processed by: cddbd v1.5.1PL0 Copyright (c) Steve Scherf et al.
# Submitted via: CDex 1.51
#
DISCID=7c09f20a
DTITLE=Enruique - Iglesias
DYEAR=1996
DGENRE=Latin
TTITLE0=si tu te vas
TTITLE1=NO LLORES POR MI
TTITLE2=ESPERIENCIA RELIGIOSA
TTITLE3=FALTO TANTO AMOR
TTITLE4=PORAMARTI
TTITLE5=MUNECA CRUEL
TTITLE6=TRAPECISTA
TTITLE7=SI JURAS REGRESAR
TTITLE8=INALCANZABLE
TTITLE9=INVENTAME
EXTD=Enrique Iglesias - Enrique Iglesias\n1. Si Tu Te Vas\n2. No Llores Por Mi\n3. Experiencia Religiosa\n4. Falta tanto Amor\n5. Por Amarte \n6. Muneca Cruel\n7. Trapecista\n8. Si Juras Regresar\n9. Inalcanzable\n10. Inventame YEAR: 1996
EXTT0=
EXTT1=
EXTT2=
EXTT3=
EXTT4=
EXTT5=
EXTT6=
EXTT7=
EXTT8=
EXTT9=
PLAYORDER=
